<svg width="1200" height="900" viewBox="0 0 1200 900" fill="none" xmlns="http://www.w3.org/2000/svg">
  <defs>
    <linearGradient id="bgGradient" x1="0" y1="0" x2="0" y2="1">
      <stop offset="0" stop-color="#F7F7F9" />
      <stop offset="1" stop-color="#E6E6EE" />
    </linearGradient>
    <linearGradient id="screenGradient" x1="0" y1="0" x2="0" y2="1">
      <stop offset="0" stop-color="#2D3037" />
      <stop offset="1" stop-color="#41454F" />
    </linearGradient>
    <linearGradient id="deskGradient" x1="0" y1="0" x2="1" y2="0">
      <stop offset="0" stop-color="#D9C6B7" />
      <stop offset="1" stop-color="#C9B4A1" />
    </linearGradient>
  </defs>
  <rect width="1200" height="900" fill="url(#bgGradient)" />
  <rect y="520" width="1200" height="380" fill="url(#deskGradient)" />
  <rect x="290" y="130" width="620" height="360" rx="40" fill="#1A1C20" opacity="0.25" />
  <rect x="270" y="110" width="660" height="380" rx="40" fill="#1F2126" />
  <rect x="300" y="140" width="600" height="320" rx="32" fill="url(#screenGradient)" />
  <rect x="450" y="470" width="300" height="90" rx="40" fill="#BFC1C8" />
  <rect x="380" y="545" width="440" height="45" rx="22" fill="#CBCDDA" />
  <rect x="680" y="430" width="180" height="14" rx="7" fill="#787C88" opacity="0.35" />
  <rect x="720" y="452" width="120" height="12" rx="6" fill="#787C88" opacity="0.15" />

  <!-- Laptop -->
  <rect x="760" y="380" width="240" height="140" rx="28" fill="#EDEFF3" stroke="#D9DCE6" stroke-width="6" />
  <rect x="800" y="422" width="160" height="36" rx="12" fill="#DDE1EC" />
  <rect x="770" y="500" width="220" height="16" rx="8" fill="#CACFDA" />

  <!-- Plant pot -->
  <rect x="150" y="360" width="120" height="180" rx="40" fill="#F7F7F9" stroke="#D7DAE2" stroke-width="6" />
  <path d="M210 360 C190 300 150 250 150 210" stroke="#6BBB90" stroke-width="34" stroke-linecap="round" />
  <path d="M210 360 C230 300 270 250 270 210" stroke="#79C89D" stroke-width="34" stroke-linecap="round" />
  <path d="M210 360 C210 285 210 230 210 170" stroke="#5AAE7C" stroke-width="36" stroke-linecap="round" />

  <!-- Notebook -->
  <rect x="320" y="520" width="220" height="120" rx="26" fill="#FFFFFF" stroke="#DADDE5" stroke-width="5" />
  <rect x="350" y="555" width="160" height="14" rx="7" fill="#E5E7EE" />
  <rect x="350" y="585" width="160" height="14" rx="7" fill="#E5E7EE" />

  <!-- Coffee mug -->
  <rect x="560" y="510" width="90" height="120" rx="30" fill="#FFFFFF" stroke="#DADDE5" stroke-width="5" />
  <path d="M650 560 C710 520 710 620 650 580" stroke="#DADDE5" stroke-width="18" fill="none" stroke-linecap="round" />
</svg>
